<svg width="94" height="39" fill="none" xmlns="http://www.w3.org/2000/svg"><path d="M21.54 14.382l-4.36 13.415h-3.313l-2.933-9.084-3.027 9.084H4.613L.233 14.382h3.2l3.008 9.429 3.142-9.429h2.856l3.046 9.506 3.104-9.506h2.951zM32.326 22.68c0 .039-.019.307-.057.805h-7.75c.14.639.47 1.144.99 1.514.52.37 1.168.556 1.943.556.533 0 1.002-.077 1.409-.23a3.538 3.538 0 001.161-.767l1.58 1.725c-.964 1.112-2.373 1.668-4.227 1.668-1.155 0-2.177-.224-3.065-.671-.889-.46-1.574-1.093-2.056-1.898-.483-.804-.724-1.718-.724-2.74 0-1.01.235-1.916.704-2.721a5.013 5.013 0 011.962-1.898c.837-.46 1.77-.69 2.799-.69 1.002 0 1.91.218 2.723.652a4.661 4.661 0 011.904 1.878c.47.805.704 1.744.704 2.817zm-5.312-3.085c-.673 0-1.238.192-1.695.575-.457.383-.736.907-.838 1.571h5.046c-.102-.651-.38-1.169-.838-1.552-.457-.396-1.015-.594-1.675-.594zM40.36 17.334c.951 0 1.815.223 2.589.67a4.634 4.634 0 011.847 1.86c.444.791.666 1.718.666 2.778s-.222 1.993-.666 2.798a4.798 4.798 0 01-1.847 1.859c-.774.434-1.638.652-2.59.652-1.409 0-2.481-.448-3.218-1.342v1.188h-2.837v-14.22h2.97v5.002c.75-.83 1.778-1.245 3.085-1.245zm-.515 8.164c.762 0 1.384-.256 1.866-.767.495-.524.743-1.22.743-2.089s-.248-1.559-.743-2.07c-.482-.523-1.104-.785-1.866-.785-.761 0-1.39.262-1.885.785-.482.511-.723 1.201-.723 2.07 0 .869.24 1.565.723 2.089.495.511 1.124.767 1.885.767zM59.883 14.382v13.415h-3.085v-5.5h-6.054v5.5h-3.085V14.382h3.085v5.29h6.054v-5.29h3.085zM72.859 22.68c0 .039-.019.307-.057.805h-7.75c.14.639.47 1.144.99 1.514.521.37 1.168.556 1.943.556.533 0 1.002-.077 1.409-.23a3.536 3.536 0 001.161-.767l1.58 1.725c-.964 1.112-2.373 1.668-4.227 1.668-1.155 0-2.177-.224-3.065-.671-.889-.46-1.574-1.093-2.057-1.898-.482-.804-.723-1.718-.723-2.74 0-1.01.235-1.916.705-2.721a5.013 5.013 0 011.96-1.898c.838-.46 1.772-.69 2.8-.69 1.002 0 1.91.218 2.722.652a4.66 4.66 0 011.904 1.878c.47.805.705 1.744.705 2.817zm-5.312-3.085c-.673 0-1.238.192-1.695.575-.457.383-.736.907-.838 1.571h5.046c-.101-.651-.38-1.169-.838-1.552-.457-.396-1.015-.594-1.675-.594zM77.676 18.848a3.316 3.316 0 011.428-1.131c.61-.256 1.308-.383 2.095-.383v2.76c-.33-.026-.552-.04-.666-.04-.85 0-1.517.244-2 .73-.482.472-.723 1.187-.723 2.146v4.867h-2.97v-10.31h2.836v1.36zM87.744 27.95c-1.08 0-2.05-.223-2.913-.67a5.123 5.123 0 01-2-1.898c-.482-.804-.723-1.718-.723-2.74 0-1.022.241-1.936.723-2.74a4.988 4.988 0 012-1.879c.863-.46 1.834-.69 2.913-.69 1.079 0 2.043.23 2.894.69a4.987 4.987 0 012 1.878c.482.805.723 1.719.723 2.741s-.241 1.936-.724 2.74a5.122 5.122 0 01-1.999 1.898c-.85.447-1.815.67-2.894.67zm0-2.453c.761 0 1.384-.255 1.866-.766.495-.524.743-1.22.743-2.089s-.248-1.559-.743-2.07c-.482-.524-1.105-.785-1.866-.785-.762 0-1.39.261-1.885.785-.495.511-.743 1.201-.743 2.07 0 .869.248 1.565.743 2.089.495.511 1.123.766 1.885.766z" fill="#FFD22E"/><path d="M60.397 38.563a5.329 5.329 0 01-1.665-.263c-.529-.182-.946-.416-1.25-.7l.402-.855c.29.263.66.479 1.11.647.457.16.924.24 1.403.24.631 0 1.103-.105 1.415-.317.312-.22.468-.508.468-.865a.823.823 0 00-.262-.635 1.618 1.618 0 00-.63-.384 10.978 10.978 0 00-1.056-.295 11.205 11.205 0 01-1.393-.417 2.37 2.37 0 01-.903-.635c-.247-.292-.37-.682-.37-1.172 0-.408.105-.777.316-1.105.217-.329.544-.592.979-.789.435-.197.976-.296 1.621-.296a5.1 5.1 0 011.328.176c.435.117.808.284 1.12.503l-.359.877a3.793 3.793 0 00-1.023-.46 3.677 3.677 0 00-1.066-.165c-.616 0-1.08.113-1.392.34-.305.226-.458.518-.458.876 0 .263.087.478.261.646.175.16.389.288.642.383.262.088.614.183 1.056.285.573.139 1.033.278 1.382.416.348.139.645.35.892.635.254.285.38.668.38 1.15 0 .402-.108.77-.326 1.106-.217.329-.547.591-.99.789-.442.19-.986.284-1.632.284zM67.296 38.542a3.217 3.217 0 01-1.578-.384 2.821 2.821 0 01-1.077-1.05 3.012 3.012 0 01-.392-1.534c0-.57.13-1.077.392-1.522.261-.453.62-.803 1.077-1.051.464-.256.99-.384 1.578-.384.522 0 .986.106 1.392.318.414.212.733.518.958.92l-.794.515a1.78 1.78 0 00-.675-.625 1.915 1.915 0 00-.892-.208c-.377 0-.718.084-1.023.252a1.826 1.826 0 00-.707.723c-.167.306-.25.66-.25 1.062 0 .409.083.77.25 1.084.174.307.41.544.707.712.305.168.646.252 1.023.252.326 0 .624-.07.892-.208.268-.139.493-.347.675-.624l.794.503a2.318 2.318 0 01-.958.931 2.97 2.97 0 01-1.392.318zM74.004 32.616c.732 0 1.313.216 1.74.647.436.423.653 1.047.653 1.872v3.34h-1.044v-3.22c0-.562-.134-.985-.403-1.27-.268-.284-.653-.427-1.153-.427-.566 0-1.012.168-1.338.504-.327.329-.49.803-.49 1.424v2.99h-1.045V30.35h1.045v3.143c.218-.278.5-.493.849-.647.355-.153.75-.23 1.186-.23zM80.832 38.542a3.11 3.11 0 01-1.545-.384 2.82 2.82 0 01-1.077-1.05 3.08 3.08 0 01-.38-1.534c0-.57.126-1.077.38-1.522.261-.453.62-.803 1.077-1.051a3.112 3.112 0 011.545-.384c.573 0 1.085.128 1.534.384.457.248.813.598 1.067 1.05.26.446.391.953.391 1.523s-.13 1.08-.391 1.533c-.254.446-.61.796-1.067 1.051a3.05 3.05 0 01-1.534.384zm0-.92c.37 0 .7-.084.99-.252.298-.175.53-.416.697-.723a2.25 2.25 0 00.25-1.073c0-.401-.083-.756-.25-1.062a1.754 1.754 0 00-.697-.723 1.94 1.94 0 00-.99-.252c-.37 0-.703.084-1 .252-.29.168-.523.409-.697.723-.167.306-.25.66-.25 1.062 0 .401.083.76.25 1.073.174.307.406.548.696.723a2 2 0 001.001.252zM87.736 38.542a3.11 3.11 0 01-1.545-.384 2.822 2.822 0 01-1.077-1.05 3.08 3.08 0 01-.38-1.534c0-.57.126-1.077.38-1.522.261-.453.62-.803 1.077-1.051a3.112 3.112 0 011.545-.384c.573 0 1.085.128 1.534.384a2.65 2.65 0 011.067 1.05c.261.446.391.953.391 1.523s-.13 1.08-.391 1.533c-.254.446-.61.796-1.067 1.051a3.05 3.05 0 01-1.534.384zm0-.92c.37 0 .7-.084.99-.252a1.85 1.85 0 00.697-.723c.167-.314.25-.672.25-1.073 0-.401-.083-.756-.25-1.062a1.755 1.755 0 00-.697-.723 1.94 1.94 0 00-.99-.252 2 2 0 00-1 .252c-.29.168-.523.409-.697.723-.167.306-.25.66-.25 1.062 0 .401.083.76.25 1.073.174.307.406.548.696.723a2 2 0 001.001.252zM92.175 30.35h1.045v8.125h-1.044V30.35zM8.098.922H5.483v6.041H6.88V5.297h1.217c1.614 0 2.623-.837 2.623-2.183 0-1.355-1.01-2.192-2.623-2.192zM8.02 4.158H6.88V2.061h1.14c.854 0 1.286.388 1.286 1.053 0 .656-.432 1.044-1.286 1.044zM15.966 6.963h1.467l-2.7-6.041H13.35l-2.693 6.041h1.433l.535-1.294h2.805l.535 1.294zm-2.891-2.356l.958-2.313.958 2.313h-1.916zM21.67 3.813c.535-.233.871-.7.871-1.286 0-1.096-1.208-1.735-2.606-1.735-.69 0-1.415.156-2.072.492l.423 1.088a3.388 3.388 0 011.623-.432c.682 0 1.217.259 1.217.751 0 .397-.328.647-.898.647h-1.372v1.053h1.476c.63 0 1.044.225 1.044.682 0 .561-.647.854-1.441.854-.587 0-1.26-.155-1.813-.491l-.431 1c.75.432 1.605.63 2.408.63 1.45 0 2.693-.655 2.693-1.794 0-.682-.423-1.217-1.122-1.459zM26.514.922h-2.616v6.041h1.399V5.297h1.217c1.614 0 2.623-.837 2.623-2.183 0-1.355-1.01-2.192-2.623-2.192zm-.078 3.236h-1.14V2.061h1.14c.854 0 1.286.388 1.286 1.053 0 .656-.432 1.044-1.286 1.044zM34.382 6.963h1.468L33.148.922h-1.38l-2.694 6.041h1.433l.535-1.294h2.805l.535 1.294zm-2.891-2.356l.958-2.313.958 2.313h-1.916zM36.65 6.963h2.866c1.553 0 2.443-.699 2.443-1.907 0-1.157-.786-1.778-2.245-1.778H38.04V2.035h3.487V.922H36.65v6.041zm1.39-1.036V4.305h1.398c.734 0 1.105.259 1.105.794 0 .544-.388.828-1.105.828H38.04zM45.905 7.067c1.899 0 3.306-1.32 3.306-3.125 0-1.803-1.407-3.124-3.306-3.124-1.907 0-3.305 1.33-3.305 3.124 0 1.796 1.398 3.125 3.305 3.125zm0-1.191c-1.079 0-1.89-.786-1.89-1.934 0-1.147.811-1.933 1.89-1.933 1.079 0 1.89.786 1.89 1.933 0 1.148-.811 1.934-1.89 1.934zM54.82.922h-5.238V2.06h1.925v4.902h1.38V2.061h1.934V.92zM60.021 6.963h1.468L58.787.922h-1.38l-2.693 6.041h1.432l.535-1.294h2.805l.535 1.294zm-2.89-2.356l.957-2.313.958 2.313H57.13zM66.432.922v2.382h-2.744V.922H62.29v6.041h1.398V4.486h2.744v2.477h1.399V.922h-1.399zM72.227 7.067c1.899 0 3.305-1.32 3.305-3.125 0-1.803-1.406-3.124-3.305-3.124-1.907 0-3.306 1.33-3.306 3.124 0 1.796 1.398 3.125 3.306 3.125zm0-1.191c-1.079 0-1.89-.786-1.89-1.934 0-1.147.811-1.933 1.89-1.933 1.079 0 1.89.786 1.89 1.933 0 1.148-.811 1.934-1.89 1.934zM83.24 3.813c.535-.259.854-.716.854-1.33 0-1-.828-1.561-2.227-1.561h-2.813v6.041h2.977c1.528 0 2.348-.647 2.348-1.7 0-.734-.406-1.234-1.14-1.45zm-2.797-1.856h1.303c.605 0 .924.26.924.734 0 .483-.32.734-.924.734h-1.303V1.957zm1.537 3.97h-1.537V4.4h1.537c.647 0 .983.241.983.75 0 .527-.336.777-.983.777z" fill="#000"/></svg>