<svg width="44" height="34" fill="none" xmlns="http://www.w3.org/2000/svg"><path d="M7.154 15.623a2.458 2.458 0 000 3.41 2.33 2.33 0 003.336 0 16.053 16.053 0 0123.03 0 2.324 2.324 0 001.663.709c.602 0 1.205-.24 1.663-.708a2.457 2.457 0 000-3.41 20.687 20.687 0 00-29.692 0z" fill="#fff"/><path d="M13.52 22.132a2.458 2.458 0 000 3.41 2.33 2.33 0 003.336 0 7.161 7.161 0 0110.288 0 2.324 2.324 0 001.663.708c.603 0 1.205-.239 1.664-.707a2.446 2.446 0 000-3.402 11.803 11.803 0 00-16.95-.01zM22 34c1.733 0 3.138-1.437 3.138-3.208 0-1.772-1.405-3.209-3.138-3.209-1.733 0-3.138 1.437-3.138 3.209C18.862 32.563 20.267 34 22 34zM43.312 9.004a29.723 29.723 0 00-42.624 0 2.458 2.458 0 000 3.411 2.33 2.33 0 003.336 0 25.058 25.058 0 0135.96 0 2.324 2.324 0 001.664.708c.603 0 1.205-.24 1.664-.708.917-.938.917-2.464 0-3.41z" fill="#fff"/></svg>